<svg width="60" height="60" viewBox="0 0 60 60" fill="none" xmlns="http://www.w3.org/2000/svg">
<g clip-path="url(#clip0_393_2114)">
<path d="M56.8945 23.5778L53.6326 23.3451C53.1014 21.4549 52.3488 19.6577 51.406 17.9818L53.5466 15.5067C54.6932 14.1811 54.6213 12.195 53.382 10.9557L49.03 6.60373C47.7897 5.36342 45.8016 5.29253 44.4761 6.44155L42.0027 8.58561C40.3261 7.64377 38.5284 6.8926 36.6378 6.3628L36.4015 3.10171C36.2749 1.35363 34.8197 0.000114441 33.0671 0.000114441H26.9125C25.1584 0.000114441 23.7025 1.35585 23.5777 3.10546L23.345 6.36737C21.4613 6.89682 19.6701 7.646 17.9991 8.58443L15.5238 6.44014C14.1983 5.29182 12.2108 5.36296 10.9707 6.60303L6.61885 10.9549C5.37913 12.1945 5.30765 14.1812 6.45491 15.5068L8.59522 17.9798C7.65209 19.6557 6.89928 21.4529 6.36784 23.343L3.10429 23.5768C1.35515 23.7022 0 25.1578 0 26.9116V33.0661C0 34.8193 1.35422 36.2746 3.10277 36.4007L6.3621 36.6358C6.89178 38.5265 7.64272 40.3243 8.58432 42.001L6.43991 44.4764C5.29171 45.8019 5.36272 47.7894 6.60292 49.0294L10.9548 53.3813C12.1944 54.621 14.1811 54.6925 15.5067 53.5452L17.9797 51.4049C19.6556 52.348 21.4528 53.1008 23.3429 53.6322L23.5767 56.8957C23.7019 58.645 25.1576 60 26.9114 60H33.0659C34.819 60 36.2744 58.6458 36.4005 56.8972L36.6356 53.6379C38.5328 53.1065 40.3366 52.352 42.0182 51.406L44.4933 53.5466C45.8189 54.6932 47.805 54.6213 49.0443 53.382L53.3963 49.0301C54.6366 47.7898 54.7074 45.8017 53.5585 44.4762L51.4144 42.0028C52.3562 40.3262 53.1074 38.5285 53.6372 36.6379L56.8983 36.4016C58.6464 36.275 59.9999 34.8199 59.9999 33.0671V26.9125C59.9999 25.1585 58.6443 23.7025 56.8945 23.5778ZM30.0001 41.4692C23.6659 41.4692 18.5309 36.3343 18.5309 30.0001C18.5309 23.6659 23.6657 18.5309 30.0001 18.5309C36.3343 18.5309 41.4692 23.6657 41.4692 30.0001C41.4691 36.3343 36.3341 41.4692 30.0001 41.4692Z" fill="#E4EAF5"/>
<path d="M56.8945 23.5778L53.6326 23.3451C53.1014 21.455 52.3488 19.6577 51.4059 17.9818L53.5466 15.5067C54.6932 14.1811 54.6212 12.195 53.382 10.9557L49.03 6.60374C47.7897 5.36343 45.8016 5.29253 44.4761 6.44155L42.3835 8.25549C43.4788 11.2739 44.0768 14.5308 44.0768 17.9274C44.0768 22.1755 43.141 26.2042 41.4668 29.8216C41.4678 29.881 41.4692 29.9403 41.4692 30.0001C41.4692 35.7509 37.2364 40.5128 31.7164 41.3412C27.1638 44.4569 21.6571 46.2805 15.7239 46.2805C12.4146 46.2805 9.23857 45.7116 6.28592 44.6696C5.30213 45.989 5.42178 47.848 6.60303 49.0293L10.9549 53.3811C12.1945 54.6209 14.1812 54.6924 15.5068 53.5451L17.9798 51.4048C19.6557 52.3479 21.4529 53.1007 23.343 53.632L23.5768 56.8956C23.7021 58.6448 25.1578 59.9999 26.9115 59.9999H33.066C34.8191 59.9999 36.2745 58.6457 36.4006 56.8971L36.6357 53.6378C38.5329 53.1063 40.3367 52.3519 42.0183 51.4058L44.4934 53.5465C45.8192 54.6931 47.8051 54.6212 49.0444 53.3818L53.3964 49.03C54.6367 47.7897 54.7075 45.8016 53.5586 44.4761L51.4145 42.0027C52.3563 40.3261 53.1074 38.5284 53.6373 36.6378L56.8984 36.4015C58.6465 36.275 60 34.8197 60 33.0671V26.9125C59.9999 25.1583 58.6443 23.7025 56.8945 23.5778Z" fill="#D3E0F4"/>
<path d="M29.9999 12.6024C20.3915 12.6024 12.6023 20.3916 12.6023 30.0002C12.6023 39.6086 20.3915 47.3978 29.9999 47.3978C39.6083 47.3978 47.3977 39.6086 47.3977 30.0001C47.3977 20.3916 39.6085 12.6024 29.9999 12.6024ZM29.9999 41.4692C23.6657 41.4692 18.5308 36.3343 18.5308 30.0001C18.5308 23.6659 23.6657 18.5309 29.9999 18.5309C36.3341 18.5309 41.469 23.6659 41.469 30.0001C41.469 36.3343 36.3341 41.4692 29.9999 41.4692Z" fill="#C7CFE2"/>
<path d="M31.7162 41.3412C31.1563 41.4252 30.5833 41.4691 29.9999 41.4691C23.6657 41.4691 18.5308 36.3342 18.5308 29.9999C18.5308 23.6657 23.6657 18.5308 29.9999 18.5308C36.2745 18.5308 41.3713 23.5696 41.4667 29.8215C42.9063 26.711 43.7981 23.2957 44.0202 19.699C40.8531 15.3956 35.7531 12.6024 29.9999 12.6024C20.3915 12.6024 12.6023 20.3916 12.6023 30.0001C12.6023 36.7945 16.4976 42.6783 22.1763 45.5425C25.6437 44.7351 28.8668 43.2912 31.7162 41.3412Z" fill="#C7CFE2"/>
<path d="M41.469 30.0001C41.522 29.9725 41.4676 29.8811 41.4667 29.8216C41.4677 29.8811 41.469 29.9404 41.469 30.0001Z" fill="#C7CFE2"/>
<path opacity="0.5" d="M30 16.2892C22.4277 16.2892 16.2891 22.4278 16.2891 30.0001C16.2891 37.5724 22.4277 43.711 30 43.711C37.5723 43.711 43.7109 37.5724 43.7109 30.0001C43.7109 22.4278 37.5724 16.2892 30 16.2892ZM30 41.4692C23.6658 41.4692 18.5309 36.3343 18.5309 30.0001C18.5309 23.6659 23.6658 18.5309 30 18.5309C36.3342 18.5309 41.4691 23.6659 41.4691 30.0001C41.4691 36.3343 36.3342 41.4692 30 41.4692Z" fill="#737E9B"/>
<path opacity="0.4" d="M47.3977 30.0001C47.3977 26.1447 46.1429 22.5829 44.0204 19.6991C43.7982 23.2958 42.9065 26.7111 41.4669 29.8216C41.4678 29.881 41.5221 29.9724 41.4692 30.0001C41.4692 35.7509 37.2364 40.5128 31.7164 41.3412C28.867 43.2912 25.6439 44.735 22.1765 45.5425C24.5285 46.7288 27.186 47.3978 30.0001 47.3978C39.6084 47.3978 47.3977 39.6086 47.3977 30.0001Z" fill="#737E9B"/>
</g>
<defs>
<clipPath id="clip0_393_2114">
<rect width="60" height="60" fill="white"/>
</clipPath>
</defs>
</svg>
