<svg width="12" height="15" viewBox="0 0 12 15" fill="none" xmlns="http://www.w3.org/2000/svg">
<path d="M9.9375 0.75H2.0625C1.35156 0.75 0.75 1.37891 0.75 2.0625V13.4375C0.75 14.1484 1.35156 14.75 2.0625 14.75H9.9375C10.6211 14.75 11.25 14.1484 11.25 13.4375V2.0625C11.25 1.37891 10.6211 0.75 9.9375 0.75ZM2.5 6.4375C2.5 6.21875 2.69141 6 2.9375 6H3.8125C4.03125 6 4.25 6.21875 4.25 6.4375V7.3125C4.25 7.55859 4.03125 7.75 3.8125 7.75H2.9375C2.69141 7.75 2.5 7.55859 2.5 7.3125V6.4375ZM2.5 9.0625C2.5 8.84375 2.69141 8.625 2.9375 8.625H3.8125C4.03125 8.625 4.25 8.84375 4.25 9.0625V9.9375C4.25 10.1836 4.03125 10.375 3.8125 10.375H2.9375C2.69141 10.375 2.5 10.1836 2.5 9.9375V9.0625ZM6.875 12.5625C6.875 12.8086 6.65625 13 6.4375 13H2.9375C2.69141 13 2.5 12.8086 2.5 12.5625V11.6875C2.5 11.4688 2.69141 11.25 2.9375 11.25H6.4375C6.65625 11.25 6.875 11.4688 6.875 11.6875V12.5625ZM6.875 9.9375C6.875 10.1836 6.65625 10.375 6.4375 10.375H5.5625C5.31641 10.375 5.125 10.1836 5.125 9.9375V9.0625C5.125 8.84375 5.31641 8.625 5.5625 8.625H6.4375C6.65625 8.625 6.875 8.84375 6.875 9.0625V9.9375ZM6.875 7.3125C6.875 7.55859 6.65625 7.75 6.4375 7.75H5.5625C5.31641 7.75 5.125 7.55859 5.125 7.3125V6.4375C5.125 6.21875 5.31641 6 5.5625 6H6.4375C6.65625 6 6.875 6.21875 6.875 6.4375V7.3125ZM9.5 12.5625C9.5 12.8086 9.28125 13 9.0625 13H8.1875C7.94141 13 7.75 12.8086 7.75 12.5625V11.6875C7.75 11.4688 7.94141 11.25 8.1875 11.25H9.0625C9.28125 11.25 9.5 11.4688 9.5 11.6875V12.5625ZM9.5 9.9375C9.5 10.1836 9.28125 10.375 9.0625 10.375H8.1875C7.94141 10.375 7.75 10.1836 7.75 9.9375V9.0625C7.75 8.84375 7.94141 8.625 8.1875 8.625H9.0625C9.28125 8.625 9.5 8.84375 9.5 9.0625V9.9375ZM9.5 7.3125C9.5 7.55859 9.28125 7.75 9.0625 7.75H8.1875C7.94141 7.75 7.75 7.55859 7.75 7.3125V6.4375C7.75 6.21875 7.94141 6 8.1875 6H9.0625C9.28125 6 9.5 6.21875 9.5 6.4375V7.3125ZM9.5 4.6875C9.5 4.93359 9.28125 5.125 9.0625 5.125H2.9375C2.69141 5.125 2.5 4.93359 2.5 4.6875V2.9375C2.5 2.71875 2.69141 2.5 2.9375 2.5H9.0625C9.28125 2.5 9.5 2.71875 9.5 2.9375V4.6875Z" fill="#555770"/>
</svg>
