<svg width="24" height="24" viewBox="0 0 24 24" fill="none" xmlns="http://www.w3.org/2000/svg">
<circle cx="12" cy="12" r="11" fill="#28293D" stroke="#FAFAFC" stroke-width="2"/>
<path d="M15.5625 15.2891C15.7734 15.5234 15.7734 15.875 15.5625 16.0859C15.3281 16.3203 14.9766 16.3203 14.7656 16.0859L12 13.2969L9.21094 16.0859C8.97656 16.3203 8.625 16.3203 8.41406 16.0859C8.17969 15.875 8.17969 15.5234 8.41406 15.2891L11.2031 12.5L8.41406 9.71094C8.17969 9.47656 8.17969 9.125 8.41406 8.91406C8.625 8.67969 8.97656 8.67969 9.1875 8.91406L12 11.7266L14.7891 8.9375C15 8.70312 15.3516 8.70312 15.5625 8.9375C15.7969 9.14844 15.7969 9.5 15.5625 9.73438L12.7734 12.5L15.5625 15.2891Z" fill="white"/>
</svg>
