<svg width="18" height="18" viewBox="0 0 18 18" fill="none" xmlns="http://www.w3.org/2000/svg">
<path d="M13.375 2.625H4.625C3.64062 2.625 2.875 3.41797 2.875 4.375V13.125C2.875 14.1094 3.64062 14.875 4.625 14.875H13.375C14.332 14.875 15.125 14.1094 15.125 13.125V4.375C15.125 3.41797 14.332 2.625 13.375 2.625ZM13.375 10.9375C13.375 11.4297 12.9648 11.8125 12.5 11.8125H5.5C5.00781 11.8125 4.625 11.4297 4.625 10.9375V7.92969L8.39844 9.84375C8.58984 9.92578 8.78125 9.98047 9 9.98047C9.19141 9.98047 9.38281 9.92578 9.57422 9.84375L13.375 7.92969V10.9375ZM13.375 6.97266L9.19141 9.05078C9.05469 9.10547 8.91797 9.10547 8.78125 9.05078L4.625 6.97266V6.5625C4.625 6.09766 5.00781 5.6875 5.5 5.6875H12.5C12.9648 5.6875 13.375 6.09766 13.375 6.5625V6.97266Z" fill="#8F90A6"/>
</svg>
