<svg width="18" height="15" viewBox="0 0 18 15" fill="none" xmlns="http://www.w3.org/2000/svg">
<path d="M4.35156 3.29297C5.58203 2.36328 7.11328 1.625 9 1.625C11.1875 1.625 12.9648 2.63672 14.25 3.83984C15.5352 5.01562 16.3828 6.4375 16.793 7.42188C16.875 7.64062 16.875 7.88672 16.793 8.10547C16.4375 8.98047 15.6992 10.2383 14.6055 11.332L17.4766 13.6016C17.7773 13.8203 17.832 14.2305 17.5859 14.5039C17.3672 14.8047 16.957 14.8594 16.6836 14.6133L0.496094 1.92578C0.195312 1.70703 0.140625 1.29688 0.386719 1.02344C0.605469 0.722656 1.01562 0.667969 1.28906 0.914062L4.35156 3.29297ZM6.34766 4.85156L8.80859 6.79297C8.91797 6.54688 9 6.30078 9 6C9 5.69922 8.89062 5.39844 8.75391 5.15234C8.83594 5.15234 8.91797 5.125 9 5.125C10.4492 5.125 11.625 6.30078 11.625 7.75C11.625 8.13281 11.543 8.48828 11.3789 8.81641L12.4453 9.63672C12.7461 9.08984 12.9375 8.43359 12.9375 7.75C12.9375 5.58984 11.1602 3.8125 9 3.8125C7.96094 3.8125 7.03125 4.22266 6.34766 4.85156ZM9 13.875C6.78516 13.875 5.00781 12.8906 3.72266 11.6875C2.4375 10.4844 1.58984 9.0625 1.17969 8.10547C1.09766 7.88672 1.09766 7.64062 1.17969 7.42188C1.45312 6.79297 1.89062 6 2.51953 5.17969L5.08984 7.20312C5.0625 7.39453 5.0625 7.58594 5.0625 7.75C5.0625 9.9375 6.8125 11.6875 9 11.6875C9.49219 11.6875 9.98438 11.6055 10.4492 11.4141L12.4453 13C11.4336 13.5469 10.2852 13.875 9 13.875Z" fill="#555770"/>
</svg>
