<svg width="18" height="18" viewBox="0 0 18 18" fill="none" xmlns="http://www.w3.org/2000/svg">
<path d="M12.5 1.75H5.5C4.76172 1.75 4.1875 2.35156 4.1875 3.0625V14.4375C4.1875 15.1758 4.76172 15.75 5.5 15.75H12.5C13.2109 15.75 13.8125 15.1758 13.8125 14.4375V3.0625C13.8125 2.35156 13.2109 1.75 12.5 1.75ZM10.3125 14C10.3125 14.2461 10.0938 14.4375 9.875 14.4375H8.09766C7.87891 14.4375 7.6875 14.2461 7.6875 14C7.6875 13.7812 7.87891 13.5625 8.125 13.5625H9.875C10.0938 13.5625 10.3125 13.7812 10.3125 14Z" fill="#8F90A6"/>
</svg>
