<svg width="30" height="30" viewBox="0 0 30 30" fill="none" xmlns="http://www.w3.org/2000/svg">
<g clip-path="url(#clip0_397_1957)">
<path opacity="0.3" d="M7.81192 23.1638C5.81076 23.1638 4.0307 21.8825 3.38432 19.975L3.3406 19.8312C3.18816 19.3261 3.1243 18.9013 3.1243 18.4762V9.95337L0.0917729 20.0761C-0.298251 21.5651 0.590519 23.1087 2.08172 23.52L21.411 28.6965C21.6523 28.759 21.8935 28.789 22.1311 28.789C23.376 28.789 24.5136 27.9627 24.8324 26.745L25.9586 23.1638H7.81192Z" fill="#4F2170"/>
<path d="M11.2496 10.0386C12.6285 10.0386 13.7496 8.91729 13.7496 7.53847C13.7496 6.15965 12.6285 5.03833 11.2496 5.03833C9.87083 5.03833 8.74951 6.15965 8.74951 7.53847C8.74951 8.91729 9.87083 10.0386 11.2496 10.0386Z" fill="#4F2170"/>
<path d="M26.8747 1.28833H8.12427C6.40189 1.28833 4.99927 2.69095 4.99927 4.41356V18.1637C4.99927 19.8864 6.40189 21.289 8.12427 21.289H26.8747C28.5973 21.289 30 19.8864 30 18.1637V4.41356C30 2.69095 28.5973 1.28833 26.8747 1.28833ZM8.12427 3.78847H26.8747C27.2199 3.78847 27.4998 4.0684 27.4998 4.41356V13.2875L23.5511 8.67979C23.1322 8.1886 22.5259 7.92607 21.8747 7.91119C21.2272 7.91485 20.6197 8.20233 20.2047 8.69993L15.562 14.2724L14.0495 12.7636C13.1946 11.9087 11.8032 11.9087 10.9494 12.7636L7.49941 16.2125V4.41356C7.49941 4.0684 7.77934 3.78847 8.12427 3.78847Z" fill="#4F2170"/>
</g>
<defs>
<clipPath id="clip0_397_1957">
<rect width="30" height="30" fill="white"/>
</clipPath>
</defs>
</svg>
