<svg width="18" height="18" viewBox="0 0 18 18" fill="none" xmlns="http://www.w3.org/2000/svg">
<path d="M6.75 8.25H3.75C2.925 8.25 2.25 7.575 2.25 6.75V3.75C2.25 2.925 2.925 2.25 3.75 2.25H6.75C7.575 2.25 8.25 2.925 8.25 3.75V6.75C8.25 7.575 7.575 8.25 6.75 8.25ZM3.75 3.75V6.75H6.75V3.75H3.75Z" fill="#555770"/>
<path d="M5.25 13.5C4.8 13.5 4.5 13.2 4.5 12.75C4.5 12.3 4.8 12 5.25 12C5.7 12 6 12.3 6 12.75C6 13.2 5.7 13.5 5.25 13.5Z" fill="#555770"/>
<path d="M14.25 8.25H11.25C10.425 8.25 9.75 7.575 9.75 6.75V3.75C9.75 2.925 10.425 2.25 11.25 2.25H14.25C15.075 2.25 15.75 2.925 15.75 3.75V6.75C15.75 7.575 15.075 8.25 14.25 8.25ZM11.25 3.75V6.75H14.25V3.75H11.25Z" fill="#555770"/>
<path d="M5.25 6C4.8 6 4.5 5.7 4.5 5.25C4.5 4.8 4.8 4.5 5.25 4.5C5.7 4.5 6 4.8 6 5.25C6 5.7 5.7 6 5.25 6Z" fill="#555770"/>
<path d="M6.75 15.75H3.75C2.925 15.75 2.25 15.075 2.25 14.25V11.25C2.25 10.425 2.925 9.75 3.75 9.75H6.75C7.575 9.75 8.25 10.425 8.25 11.25V14.25C8.25 15.075 7.575 15.75 6.75 15.75ZM3.75 11.25V14.25H6.75V11.25H3.75Z" fill="#555770"/>
<path d="M12.75 6C12.3 6 12 5.7 12 5.25C12 4.8 12.3 4.5 12.75 4.5C13.2 4.5 13.5 4.8 13.5 5.25C13.5 5.7 13.2 6 12.75 6Z" fill="#555770"/>
<path d="M12.75 11.25H10.5C10.05 11.25 9.75 10.95 9.75 10.5C9.75 10.05 10.05 9.75 10.5 9.75H12.75C13.2 9.75 13.5 10.05 13.5 10.5C13.5 10.95 13.2 11.25 12.75 11.25Z" fill="#555770"/>
<path d="M15 11.25C14.55 11.25 14.25 10.95 14.25 10.5C14.25 10.05 14.55 9.75 15 9.75C15.45 9.75 15.75 10.05 15.75 10.5C15.75 10.95 15.45 11.25 15 11.25Z" fill="#555770"/>
<path d="M10.5 13.5C10.05 13.5 9.75 13.2 9.75 12.75V10.5C9.75 10.05 10.05 9.75 10.5 9.75C10.95 9.75 11.25 10.05 11.25 10.5V12.75C11.25 13.2 10.95 13.5 10.5 13.5Z" fill="#555770"/>
<path d="M12.75 15.75H10.5C10.05 15.75 9.75 15.45 9.75 15C9.75 14.55 10.05 14.25 10.5 14.25H12.75C13.2 14.25 13.5 14.55 13.5 15C13.5 15.45 13.2 15.75 12.75 15.75Z" fill="#555770"/>
<path d="M15 13.5H12.75C12.3 13.5 12 13.2 12 12.75C12 12.3 12.3 12 12.75 12H15C15.45 12 15.75 12.3 15.75 12.75C15.75 13.2 15.45 13.5 15 13.5Z" fill="#555770"/>
<path d="M15 15.75C14.55 15.75 14.25 15.45 14.25 15V12.75C14.25 12.3 14.55 12 15 12C15.45 12 15.75 12.3 15.75 12.75V15C15.75 15.45 15.45 15.75 15 15.75Z" fill="#555770"/>
<rect x="2.70703" y="1.29289" width="18.9296" height="2" rx="1" transform="rotate(45 2.70703 1.29289)" fill="#555770" stroke="white"/>
</svg>
