<svg width="14" height="13" viewBox="0 0 14 13" fill="none" xmlns="http://www.w3.org/2000/svg">
<path d="M4.8125 0.625C5.52344 0.625 6.125 1.22656 6.125 1.9375V4.5625C6.125 5.30078 5.52344 5.875 4.8125 5.875H2.1875C1.44922 5.875 0.875 5.30078 0.875 4.5625V1.9375C0.875 1.22656 1.44922 0.625 2.1875 0.625H4.8125ZM4.375 2.375H2.625V4.125H4.375V2.375ZM4.8125 7.625C5.52344 7.625 6.125 8.22656 6.125 8.9375V11.5625C6.125 12.3008 5.52344 12.875 4.8125 12.875H2.1875C1.44922 12.875 0.875 12.3008 0.875 11.5625V8.9375C0.875 8.22656 1.44922 7.625 2.1875 7.625H4.8125ZM4.375 9.375H2.625V11.125H4.375V9.375ZM7.875 1.9375C7.875 1.22656 8.44922 0.625 9.1875 0.625H11.8125C12.5234 0.625 13.125 1.22656 13.125 1.9375V4.5625C13.125 5.30078 12.5234 5.875 11.8125 5.875H9.1875C8.44922 5.875 7.875 5.30078 7.875 4.5625V1.9375ZM9.625 4.125H11.375V2.375H9.625V4.125ZM10.5 12H11.375V12.875H10.5V12ZM13.125 12.875H12.25V12H13.125V12.875ZM12.25 7.625H13.125V11.125H10.5V10.25H9.625V12.875H7.875V7.625H10.5V8.5H12.25V7.625Z" fill="#555770"/>
</svg>
