<svg width="18" height="18" viewBox="0 0 18 18" fill="none" xmlns="http://www.w3.org/2000/svg">
<path d="M3.75 6.125V3.5C3.75 2.54297 4.51562 1.75 5.5 1.75H12.5C13.457 1.75 14.25 2.54297 14.25 3.5V6.125H12.5V3.9375C12.5 3.71875 12.2812 3.5 12.0625 3.5C11.8164 3.5 11.625 3.71875 11.625 3.9375V6.125H3.75ZM12.5 7V11.8125C12.5 12.0586 12.2812 12.25 12.0625 12.25C11.8164 12.25 11.625 12.0586 11.625 11.8125V7H3.75V14.875C3.75 15.3672 4.13281 15.75 4.625 15.75H13.375C13.8398 15.75 14.25 15.3672 14.25 14.875V7H12.5Z" fill="#8F90A6"/>
</svg>
