<svg width="18" height="18" viewBox="0 0 18 18" fill="none" xmlns="http://www.w3.org/2000/svg">
<path d="M14.6602 7.875C14.5508 7.875 14.4414 7.875 14.332 7.875C13.6211 7.875 12.9922 7.57422 12.5547 7.08203C12.1172 7.57422 11.4883 7.875 10.7773 7.875C10.0664 7.875 9.41016 7.57422 8.97266 7.08203C8.5625 7.57422 7.90625 7.875 7.19531 7.875C6.48438 7.875 5.85547 7.57422 5.41797 7.08203C4.98047 7.57422 4.35156 7.875 3.64062 7.875C3.53125 7.875 3.42188 7.875 3.3125 7.875C1.78125 7.65625 1.07031 5.87891 1.89062 4.59375L3.44922 2.13281C3.58594 1.88672 3.83203 1.75 4.10547 1.75H13.8672C14.1406 1.75 14.3867 1.88672 14.5234 2.13281L16.082 4.59375C16.9023 5.87891 16.1914 7.65625 14.6602 7.875ZM14.7695 8.72266C14.8789 8.72266 15.0156 8.69531 15.125 8.66797V14C15.125 14.9844 14.332 15.75 13.375 15.75H4.625C3.64062 15.75 2.875 14.9844 2.875 14V8.66797C2.95703 8.69531 3.06641 8.72266 3.17578 8.72266H3.20312C3.33984 8.75 3.47656 8.75 3.64062 8.75C3.96875 8.75 4.29688 8.72266 4.625 8.61328V12.25H13.375V8.61328C13.6758 8.72266 14.0039 8.75 14.332 8.75C14.4961 8.75 14.6328 8.75 14.7695 8.72266Z" fill="#8F90A6"/>
</svg>
