<svg width="18" height="18" viewBox="0 0 18 18" fill="none" xmlns="http://www.w3.org/2000/svg">
<path d="M2.875 4.375C2.875 3.41797 3.64062 2.625 4.625 2.625H13.375C14.332 2.625 15.125 3.41797 15.125 4.375V13.125C15.125 14.1094 14.332 14.875 13.375 14.875H4.625C3.64062 14.875 2.875 14.1094 2.875 13.125V4.375ZM10.0391 6.34375C9.79297 6.61719 9.82031 7.02734 10.0664 7.27344L11.7344 8.75L10.0664 10.2539C9.82031 10.4727 9.79297 10.9102 10.0391 11.1836C10.2852 11.4297 10.6953 11.457 10.9688 11.2109L13.1562 9.24219C13.293 9.13281 13.375 8.94141 13.375 8.75C13.375 8.58594 13.293 8.39453 13.1562 8.28516L10.9688 6.31641C10.6953 6.07031 10.2852 6.09766 10.0391 6.34375ZM7.90625 7.27344C8.15234 7.02734 8.17969 6.61719 7.93359 6.34375C7.6875 6.09766 7.27734 6.07031 7.00391 6.31641L4.81641 8.28516C4.67969 8.39453 4.625 8.58594 4.625 8.75C4.625 8.94141 4.67969 9.13281 4.81641 9.24219L7.00391 11.2109C7.27734 11.457 7.6875 11.4297 7.93359 11.1836C8.17969 10.9102 8.15234 10.4727 7.90625 10.2539L6.23828 8.75L7.90625 7.27344Z" fill="#8F90A6"/>
</svg>
