<svg width="18" height="18" viewBox="0 0 18 18" fill="none" xmlns="http://www.w3.org/2000/svg">
<path d="M0.46875 7.27344C0.824219 7.60156 1.37109 7.62891 1.72656 7.30078C3.14844 5.90625 4.92578 5.00391 6.83984 4.59375L6.8125 3.85547C6.78516 3.47266 6.86719 3.11719 7.03125 2.81641C4.59766 3.19922 2.32812 4.32031 0.496094 6.04297C0.167969 6.37109 0.140625 6.94531 0.46875 7.27344ZM3.77734 8.96875C3.42188 9.29688 3.39453 9.84375 3.69531 10.2266C4.02344 10.582 4.57031 10.6094 4.92578 10.2812C5.55469 9.76172 6.23828 9.35156 7.00391 9.10547L6.92188 7.30078C5.77344 7.60156 4.67969 8.17578 3.77734 8.96875ZM17.4766 6.04297C15.6445 4.32031 13.4297 3.19922 10.9688 2.81641C11.0781 3.0625 11.1602 3.36328 11.1602 3.69141V3.82812L11.1328 4.62109C13.0469 5.00391 14.8242 5.93359 16.2461 7.30078C16.4375 7.46484 16.6562 7.54688 16.875 7.54688C17.0938 7.54688 17.3125 7.46484 17.5039 7.27344C17.832 6.94531 17.8047 6.37109 17.4766 6.04297ZM11.0508 7.30078L10.9688 9.10547C11.7344 9.35156 12.418 9.76172 13.0469 10.2812C13.2109 10.4453 13.4023 10.5 13.6211 10.5C13.8672 10.5 14.0859 10.418 14.2773 10.2266C14.6055 9.84375 14.5508 9.29688 14.1953 8.96875C13.293 8.17578 12.1992 7.60156 11.0508 7.30078ZM8.94531 10.7188C9.54688 10.7188 10.0664 10.2539 10.0938 9.625C10.0938 9.625 10.3125 3.71875 10.2852 3.69141C10.2578 2.98047 9.65625 2.37891 8.94531 2.43359C8.20703 2.46094 7.66016 3.0625 7.6875 3.82812L7.87891 9.65234C7.90625 10.2266 8.37109 10.7188 8.94531 10.7188ZM9 11.8125C8.15234 11.8125 7.46875 12.5234 7.46875 13.3438C7.46875 14.1914 8.15234 14.875 8.97266 14.875C9.79297 14.875 10.5312 14.1914 10.5312 13.3438C10.5312 12.5234 9.82031 11.8125 9 11.8125Z" fill="#8F90A6"/>
</svg>
